<svg id="_01" data-name="01" xmlns="http://www.w3.org/2000/svg" viewBox="0 0 4680 3120"><defs><style>.cls-1,.cls-4{fill:#fff;}.cls-1{opacity:0;}.cls-2{fill:#cee6ff;}.cls-3{fill:#7f91f6;}.cls-5{fill:#27217c;}.cls-6{opacity:0.6;}.cls-7{fill:#3737b7;}.cls-8{fill:#5e4dd3;}.cls-9{fill:#49181b;}.cls-10{fill:#fadade;}.cls-11{fill:#a0707e;}.cls-12{fill:#f5ae97;}.cls-13{fill:#ed856e;}.cls-14{fill:#351314;}.cls-15{fill:#5a1f20;}.cls-16{fill:#eabdc4;}.cls-17{fill:#e0a4b2;}.cls-18{fill:#d3889b;}.cls-19{fill:#98e3e5;}.cls-20{fill:#ffd132;}.cls-21{fill:#4431b8;}.cls-22{fill:#00a19c;}.cls-23{fill:#07827d;}.cls-24{fill:#00b6be;}.cls-25{fill:#1b5a4c;}.cls-26{fill:#3c7219;}.cls-27{fill:#ffcf00;}.cls-28{fill:#ffa533;}.cls-29{fill:#fffffe;}.cls-30{fill:#eaeae5;}.cls-31{fill:#ffb600;}.cls-32{fill:#6f67ce;}.cls-33{fill:#df3b17;}.cls-34{fill:#f34d2b;}.cls-35{fill:#b795c6;}.cls-36{fill:#eaddff;}.cls-37{fill:#ffeb76;}.cls-38{fill:#4f4f51;}.cls-39{fill:#060606;}.cls-40{fill:#7c7c7c;}.cls-41{fill:#ff9583;}.cls-42{fill:#d7d8d8;}.cls-43{fill:#072c35;}.cls-44{fill:#cb6655;}.cls-45{fill:#0e4959;}.cls-46{fill:#06252c;}.cls-47{fill:#f2f4f2;}</style></defs><title>01</title><rect id="_01-2" data-name="01" class="cls-1" width="4680" height="3120"/><rect class="cls-2" x="2781.27" y="851.1" width="742.36" height="1488.31"/><path class="cls-3" d="M3518.89,2291.23a33.51,33.51,0,0,1-33.51,33.52H2826.55a33.52,33.52,0,0,1-33.52-33.52v-1392a33.52,33.52,0,0,1,33.52-33.51h658.83a33.51,33.51,0,0,1,33.51,33.51Zm-15.43-1466h-695a56,56,0,0,0-55.95,56V2309.32a55.94,55.94,0,0,0,55.95,55.94h695a55.94,55.94,0,0,0,55.95-55.94V881.19A56,56,0,0,0,3503.46,825.24Z"/><path class="cls-4" d="M3215.7,943.15v473.37a31.58,31.58,0,0,1-31.58,31.59H2874.6a31.59,31.59,0,0,1-31.59-31.59V943.15a31.59,31.59,0,0,1,31.59-31.59h309.52A31.58,31.58,0,0,1,3215.7,943.15Z"/><path class="cls-5" d="M3117,1082.26c0,48.42-39.26,120.54-87.67,120.54s-87.67-72.12-87.67-120.54a87.67,87.67,0,0,1,175.34,0Z"/><path class="cls-5" d="M3215.7,1327v89.51a31.58,31.58,0,0,1-31.58,31.59H2874.6a31.59,31.59,0,0,1-31.59-31.59v-73A218.09,218.09,0,0,1,3215.7,1327Z"/><rect class="cls-4" x="3251.07" y="925.62" width="233.53" height="35.01" rx="17.51"/><rect class="cls-4" x="3251.07" y="977.64" width="233.53" height="35.01" rx="17.51"/><rect class="cls-4" x="3251.07" y="1029.85" width="233.53" height="35.01" rx="17.51"/><rect class="cls-4" x="2843.01" y="1479.45" width="636.51" height="24.74" rx="12.37"/><rect class="cls-4" x="2843.01" y="1542.14" width="636.51" height="24.74" rx="12.37"/><rect class="cls-4" x="2843.01" y="2182.1" width="636.51" height="24.74" rx="12.37"/><rect class="cls-4" x="2843.01" y="2249.83" width="636.51" height="24.74" rx="12.37"/><g class="cls-6"><path class="cls-7" d="M3029.36,825.24v1540H2808.47a55.94,55.94,0,0,1-55.95-55.94V881.19a56,56,0,0,1,55.95-56Z"/></g><rect class="cls-2" x="1348.11" y="851.1" width="742.36" height="1488.31"/><path class="cls-3" d="M2070.3,825.24h-695a56,56,0,0,0-56,56V2309.32a55.94,55.94,0,0,0,56,55.94h695a55.94,55.94,0,0,0,55.95-55.94V881.19A56,56,0,0,0,2070.3,825.24Zm15.43,1466a33.51,33.51,0,0,1-33.5,33.52H1393.4a33.52,33.52,0,0,1-33.52-33.52v-1392a33.51,33.51,0,0,1,33.52-33.51h658.83a33.5,33.5,0,0,1,33.5,33.51Z"/><path class="cls-4" d="M1782.54,943.15v473.37a31.58,31.58,0,0,1-31.58,31.59H1441.44a31.59,31.59,0,0,1-31.59-31.59V943.15a31.59,31.59,0,0,1,31.59-31.59H1751A31.58,31.58,0,0,1,1782.54,943.15Z"/><path class="cls-5" d="M1683.87,1082.26c0,48.42-39.25,120.54-87.67,120.54s-87.67-72.12-87.67-120.54a87.67,87.67,0,1,1,175.34,0Z"/><path class="cls-5" d="M1782.54,1327v89.51a31.58,31.58,0,0,1-31.58,31.59H1441.44a31.59,31.59,0,0,1-31.59-31.59v-73A218.09,218.09,0,0,1,1782.54,1327Z"/><rect class="cls-4" x="1817.91" y="925.62" width="233.53" height="129.56" rx="33.67"/><rect class="cls-4" x="1817.91" y="1118.12" width="233.53" height="129.56" rx="33.67"/><rect class="cls-4" x="1817.91" y="1311.34" width="233.53" height="129.56" rx="33.67"/><rect class="cls-4" x="1409.85" y="1479.45" width="636.51" height="24.74" rx="12.37"/><rect class="cls-4" x="1409.85" y="1542.14" width="636.51" height="24.74" rx="12.37"/><rect class="cls-4" x="1409.85" y="2182.1" width="636.51" height="24.74" rx="12.37"/><rect class="cls-4" x="1409.85" y="2249.83" width="636.51" height="24.74" rx="12.37"/><g class="cls-6"><path class="cls-7" d="M2126.25,881.19V2309.32a55.94,55.94,0,0,1-55.95,55.94H1943.57v-1540H2070.3A56,56,0,0,1,2126.25,881.19Z"/></g><rect class="cls-2" x="2024.8" y="563.96" width="916.08" height="1836.59"/><path class="cls-8" d="M2916,532.05H2058.36a69,69,0,0,0-69,69.05V2363.42a69,69,0,0,0,69,69H2916a69,69,0,0,0,69-69V601.1A69,69,0,0,0,2916,532.05Zm19,1809.05a41.35,41.35,0,0,1-41.35,41.36h-813a41.36,41.36,0,0,1-41.36-41.36V623.41a41.36,41.36,0,0,1,41.36-41.36h813A41.35,41.35,0,0,1,2935,623.41Z"/><path class="cls-4" d="M2580.12,679.11v610.1a35.9,35.9,0,0,1-35.91,35.93H2123.66a35.94,35.94,0,0,1-35.92-35.93V679.11a35.92,35.92,0,0,1,35.92-35.92h420.55A35.92,35.92,0,0,1,2580.12,679.11Z"/><path class="cls-8" d="M2577.81,1301.91a35.91,35.91,0,0,1-33.6,23.23H2123.66a35.79,35.79,0,0,1-27.41-12.72c17-37.27,34.1-72,46.32-89.89,34.29-50.23,111.84-62.47,111.84-62.47l144.32-2.63s51.69,7.49,112.17,38.54C2535.43,1208.58,2558.76,1253.28,2577.81,1301.91Z"/><path class="cls-9" d="M2256.52,800.53s8.49-60,68.33-55.5,78.06,37.61,72.65,58.33-1.38,261.4-1.38,261.4,16.67,75-9.53,88.3-127-2.55-127-2.55-22.43-43.84,5.11-144.24S2256.52,800.53,2256.52,800.53Z"/><path class="cls-10" d="M2282.77,794.18s31-31.25,90.71-1.61-89.1,24-89.1,24Z"/><path class="cls-11" d="M2279,1126.46s34.15-23,97.55-.49l9.36,25.09-114.33,9.34Z"/><path class="cls-12" d="M2371.29,1148.23c-2.45-10.74-6-29.55-6.37-46.88a100.53,100.53,0,0,1,.36-12.52l-73.91-1.48s-.26,4.85-.71,11.94c-.91,14-2.83,36.88-5.84,49a14.27,14.27,0,0,0,4.78,14.34,62.09,62.09,0,0,0,20.38,11.45l29.51,86,16.42-85.52a90.07,90.07,0,0,0,12.61-7.35C2373.29,1163.85,2372.53,1153.84,2371.29,1148.23Z"/><path class="cls-13" d="M2364.92,1101.35c-35.15,9.37-59.57,4.29-74.26-2.06.45-7.09.71-11.94.71-11.94l73.91,1.49A100.31,100.31,0,0,0,2364.92,1101.35Z"/><path class="cls-12" d="M2461.11,992c.2,26.62-34.33,41.37-48.41,46.25-14.55,30.55-40,58.63-84.55,57.74-44.75-.9-69.11-30.29-82.41-61.61-14.59-6-46.26-21.9-45.07-47.61,1.14-23,15.11-27.25,23.67-27.65a29.2,29.2,0,0,1,5.53.22l19.31-127.3,84.56-14.48,61.94,13.19,24.06,23,12.15,109.83S2460.9,958.58,2461.11,992Z"/><path class="cls-13" d="M2436.48,985.08c-1.88-5.22,4.07-10,8.81-7.16,3.94,2.39,7.22,7.54,4,18.6-6.31,21.49-17.93,11.9-17,5.35s7-9.29,4.27-16.57A1.43,1.43,0,0,1,2436.48,985.08Z"/><path class="cls-13" d="M2224.63,980.83c2.09-5.14-3.67-10.2-8.52-7.51-4,2.23-7.52,7.24-4.72,18.43,5.44,21.72,17.44,12.6,16.74,6s-6.58-9.56-3.59-16.72Z"/><path class="cls-14" d="M2291,822.33s-11.8,86.9-80.19,105.28C2210.83,927.61,2259.4,893.13,2291,822.33Z"/><path class="cls-13" d="M2431.89,963.58c-91.79,2.64-106.22-82.15-106.22-82.15-17.31,93.21-96,78.09-96,78.09l-5.32-.37a29.2,29.2,0,0,1,5.53.22l19.31-127.3,84.56-14.48,61.94,13.19,24.06,23Z"/><path class="cls-15" d="M2431.89,963.58c-92.82-21.38-105.08-107.44-105.08-107.44s-15.73,81.58-96.94,103.23c-8.72-1-13.88,1.48-13.88,1.48-17.23-34.92-8.13-94-8.13-94,21.82-100,117.74-68.37,117.74-68.37C2487.07,753.65,2451,967.76,2451,967.76A27.64,27.64,0,0,0,2431.89,963.58Z"/><path class="cls-14" d="M2431.89,963.58c-92.82-21.37-105.08-107.43-105.08-107.43s-15.73,81.58-96.94,103.22c0,0,90.2-56.08,94.41-125.35C2324.28,834,2356.92,928.63,2431.89,963.58Z"/><path class="cls-14" d="M2354.27,871.14s12.37,59.66,81,54.85C2435.26,926,2381.46,912.09,2354.27,871.14Z"/><path class="cls-14" d="M2304.92,859.15s-18.12,51-72.4,63.34C2232.52,922.49,2269.65,903.8,2304.92,859.15Z"/><path class="cls-14" d="M2297.11,804.67s-56.62-6.32-72.56,78.41C2224.55,883.08,2247.55,813.54,2297.11,804.67Z"/><path class="cls-14" d="M2363.3,805.94s74.29-7.25,77.1,75.51C2440.4,881.45,2428.77,820.32,2363.3,805.94Z"/><polygon class="cls-16" points="2287.95 1234.05 2320.3 1216.71 2316.89 1184.52 2292.19 1176.17 2288.76 1210.13 2287.95 1234.05"/><polygon class="cls-16" points="2393.43 1233.44 2354.4 1212.56 2354.32 1182.76 2376.63 1174.91 2393.43 1233.44"/><path class="cls-17" d="M2321.16,1173.8S2287,1215,2288,1234.05c0,0-35.76-39.68-29.16-76.54l20.16-31S2294.75,1164.55,2321.16,1173.8Z"/><path class="cls-18" d="M2321.16,1173.8l18.33,86.22-30.13-70.75S2313.62,1176.8,2321.16,1173.8Z"/><polygon class="cls-18" points="2347.82 1174.33 2339.49 1260.02 2363.37 1184.03 2347.82 1174.33"/><path class="cls-17" d="M2398.7,1157.42l-5.27,76-45.61-59.12s31.61-26.32,28.68-48.36Z"/><path class="cls-5" d="M2705,792.33q-21.37,0-36.57-8.44a57.66,57.66,0,0,1-23.34-23.72q-8.16-15.28-8.16-36.09,0-20.64,8.16-35.91a57.74,57.74,0,0,1,23.34-23.73Q2683.63,656,2705,656a77.78,77.78,0,0,1,19,2.43,65.63,65.63,0,0,1,16.79,6.57q5.8,3.38,7.12,8.43a13.61,13.61,0,0,1-.84,9.57,12.49,12.49,0,0,1-6.66,6.37q-4.5,1.89-10.12-1.31a42.13,42.13,0,0,0-11.82-4.87,53.08,53.08,0,0,0-12.56-1.5q-18.95,0-28.6,11t-9.66,31.41q0,20.43,9.66,31.5t28.6,11.06a52.78,52.78,0,0,0,12.28-1.5,48.37,48.37,0,0,0,12.1-4.69q6-3.18,10.5-1.4a12.28,12.28,0,0,1,6.65,6,13.18,13.18,0,0,1,1,9.19q-1.12,5-6.37,8.15a57.38,57.38,0,0,1-17.16,7.32A78.6,78.6,0,0,1,2705,792.33Z"/><path class="cls-5" d="M2820.51,792a16.65,16.65,0,0,1-9.84-2.72,19.26,19.26,0,0,1-6.29-8.35l-47.25-105q-3.75-8.43.09-14t11.72-5.53q6.38,0,9.66,2.91a24,24,0,0,1,5.72,8.53L2821.07,753l36.76-85.32a21.17,21.17,0,0,1,5.72-8.34q3.47-2.91,9.47-2.91,7.3,0,11,5.53t-.1,14l-47.25,105a21.47,21.47,0,0,1-6.28,8.35Q2826.7,792,2820.51,792Z"/><rect class="cls-4" x="2636.93" y="865.76" width="248.86" height="678.2" rx="30.11"/><rect class="cls-4" x="2087.74" y="2031.34" width="804.94" height="27.54" rx="13.77"/><rect class="cls-4" x="2087.74" y="1945.81" width="804.94" height="27.54" rx="13.77"/><rect class="cls-4" x="2087.74" y="2224.01" width="580.22" height="27.54" rx="13.77"/><rect class="cls-19" x="2087.74" y="2300.23" width="693.53" height="27.54" rx="13.77"/><path class="cls-20" d="M2157.34,2086.7l12.51,25.36a6.84,6.84,0,0,0,5.14,3.73l28,4.07a6.83,6.83,0,0,1,3.79,11.65l-20.25,19.73a6.83,6.83,0,0,0-2,6.05l4.78,27.86a6.83,6.83,0,0,1-9.91,7.2l-25-13.16a6.85,6.85,0,0,0-6.35,0l-25,13.16a6.83,6.83,0,0,1-9.91-7.2l4.78-27.86a6.83,6.83,0,0,0-2-6.05l-20.25-19.73a6.83,6.83,0,0,1,3.79-11.65l28-4.07a6.84,6.84,0,0,0,5.14-3.73l12.51-25.36A6.83,6.83,0,0,1,2157.34,2086.7Z"/><path class="cls-20" d="M2306.21,2086.7l12.51,25.36a6.82,6.82,0,0,0,5.14,3.73l28,4.07a6.83,6.83,0,0,1,3.78,11.65l-20.24,19.73a6.84,6.84,0,0,0-2,6.05l4.78,27.86a6.83,6.83,0,0,1-9.91,7.2l-25-13.16a6.87,6.87,0,0,0-6.36,0l-25,13.16a6.83,6.83,0,0,1-9.91-7.2l4.78-27.86a6.83,6.83,0,0,0-2-6.05l-20.25-19.73a6.83,6.83,0,0,1,3.79-11.65l28-4.07a6.84,6.84,0,0,0,5.15-3.73L2294,2086.7A6.83,6.83,0,0,1,2306.21,2086.7Z"/><path class="cls-20" d="M2455.08,2086.7l12.51,25.36a6.81,6.81,0,0,0,5.14,3.73l28,4.07a6.83,6.83,0,0,1,3.78,11.65l-20.24,19.73a6.84,6.84,0,0,0-2,6.05l4.78,27.86a6.83,6.83,0,0,1-9.91,7.2l-25-13.16a6.87,6.87,0,0,0-6.36,0l-25,13.16a6.83,6.83,0,0,1-9.91-7.2l4.78-27.86a6.84,6.84,0,0,0-2-6.05l-20.24-19.73a6.83,6.83,0,0,1,3.78-11.65l28-4.07a6.81,6.81,0,0,0,5.14-3.73l12.52-25.36A6.83,6.83,0,0,1,2455.08,2086.7Z"/><path class="cls-19" d="M2603.94,2086.7l12.51,25.36a6.84,6.84,0,0,0,5.15,3.73l28,4.07a6.83,6.83,0,0,1,3.79,11.65l-20.25,19.73a6.86,6.86,0,0,0-2,6.05l4.78,27.86a6.83,6.83,0,0,1-9.91,7.2l-25-13.16a6.87,6.87,0,0,0-6.36,0l-25,13.16a6.83,6.83,0,0,1-9.91-7.2l4.78-27.86a6.84,6.84,0,0,0-2-6.05l-20.24-19.73a6.83,6.83,0,0,1,3.78-11.65l28-4.07a6.82,6.82,0,0,0,5.14-3.73l12.51-25.36A6.83,6.83,0,0,1,2603.94,2086.7Z"/><path class="cls-19" d="M2752.81,2086.7l12.51,25.36a6.84,6.84,0,0,0,5.14,3.73l28,4.07a6.83,6.83,0,0,1,3.79,11.65L2782,2151.24a6.83,6.83,0,0,0-2,6.05l4.78,27.86a6.83,6.83,0,0,1-9.91,7.2l-25-13.16a6.85,6.85,0,0,0-6.35,0l-25,13.16a6.82,6.82,0,0,1-9.9-7.2l4.77-27.86a6.83,6.83,0,0,0-2-6.05l-20.24-19.73a6.83,6.83,0,0,1,3.78-11.65l28-4.07a6.82,6.82,0,0,0,5.14-3.73l12.51-25.36A6.83,6.83,0,0,1,2752.81,2086.7Z"/><rect class="cls-20" x="3049.75" y="623.89" width="120.34" height="65.03" rx="10.7"/><rect class="cls-21" x="1690.47" y="636.19" width="212.41" height="114.79" rx="18.89"/><rect class="cls-21" x="2072.01" y="343.36" width="212.41" height="114.79" rx="18.89"/><rect class="cls-8" x="1431.86" y="515.54" width="112.97" height="61.05" rx="10.05"/><rect class="cls-21" x="3404.86" y="692.74" width="210.77" height="113.9" rx="18.75"/><rect class="cls-20" x="1149.02" y="845.3" width="95.55" height="73.11" rx="10.11"/><rect class="cls-8" x="2705.56" y="443.93" width="99.44" height="53.74" rx="8.84"/><rect class="cls-3" x="3261.99" y="519.19" width="99.44" height="53.74" rx="8.84"/><rect class="cls-3" x="2448.21" y="382.04" width="69.25" height="37.42" rx="6.16"/><path class="cls-8" d="M1475,1919.48s25.08-172-15.3-303.54-67.17-215.46-69.25-244.09c0,0-46.66,121.81-74,190.92-60.2,152.48-74.24,270.87-10,395.27,0,0,.79,68.16,1.38,71.16s70.67,69,70.67,69l104.37-65.18Z"/><path class="cls-21" d="M1406.72,2119.6s17.26-364.71-10.85-578c0,0,3.7,383.19-45.68,560.36Z"/><path class="cls-22" d="M1435.7,2104.86l.39,92.37.4,102.54-34.77,5.72s-14-14.13-34.88-32.88c-32.27-28.83-81-68.58-120.53-84-65-25.43-166.89-124.16-244.5-301.2-2.75-6.22-5.56-12.17-8.48-17.83-79.79-156.21-224-116.16-224-116.16,117.33-38.21,217.12-36.7,301-12.58h0C1329.17,1815.27,1435.7,2104.86,1435.7,2104.86Z"/><path class="cls-23" d="M1436.09,2197.23l.4,102.54-34.77,5.72s-14-14.13-34.88-32.88c-234.86-458-383.06-515-387.7-516.73C1203.63,1808.19,1377.31,2090.07,1436.09,2197.23Z"/><path class="cls-24" d="M1320.85,2176.28l20.81,75.86,23.14,84.21,29.84-3.26s8.21-14.79,21.08-35c19.87-31,50.79-74.81,79.65-96.5,47.54-35.75,108.49-140,131.65-303q1.24-8.61,2.88-16.57c29.71-146.41,157.18-146.55,157.18-146.55-105-4.5-186.5,19.57-249.77,58.55h0C1342,1914.34,1320.85,2176.28,1320.85,2176.28Z"/><path class="cls-23" d="M1341.66,2252.14l23.14,84.21,29.84-3.26s8.21-14.79,21.08-35c87.87-429.43,196.38-510.14,199.8-512.61C1443.33,1879.81,1365.37,2150.79,1341.66,2252.14Z"/><path class="cls-25" d="M942,1989.33s323.33,45.41,437.32,281C1379.33,2270.36,1280.38,2069.73,942,1989.33Z"/><path class="cls-25" d="M977.7,1945.51c5,29.57,18.31,37.11,24.52,39a3.27,3.27,0,0,0,4.18-2.55c1.13-6.4.52-21.69-23.49-39.66A3.28,3.28,0,0,0,977.7,1945.51Z"/><path class="cls-25" d="M1015,1954.86c2.66,29.87,15.35,38.43,21.38,40.83a3.28,3.28,0,0,0,4.38-2.22c1.63-6.28,2.21-21.58-20.31-41.37A3.29,3.29,0,0,0,1015,1954.86Z"/><path class="cls-25" d="M1057.41,1970.42c-2.09,26.7,7.81,36.13,12.77,39.14a2.92,2.92,0,0,0,4.18-1.31c2.37-5.29,5.16-18.68-11.75-39.45A2.93,2.93,0,0,0,1057.41,1970.42Z"/><path class="cls-25" d="M1096.35,1982.9c-7.32,25.76.52,37,4.79,40.89a2.92,2.92,0,0,0,4.35-.45c3.37-4.73,8.75-17.29-3.72-41A2.93,2.93,0,0,0,1096.35,1982.9Z"/><path class="cls-25" d="M1133.89,1998.47c-10.54,22.9-4.86,34.44-1.46,38.71a2.75,2.75,0,0,0,4.11.21c3.81-3.91,10.63-14.81,2.47-38.66A2.76,2.76,0,0,0,1133.89,1998.47Z"/><path class="cls-25" d="M1179.64,2009.31c-20.76,14.29-21.8,27.11-21.06,32.52a2.75,2.75,0,0,0,3.43,2.28c5.27-1.4,16.71-7.29,21.9-31.95A2.77,2.77,0,0,0,1179.64,2009.31Z"/><path class="cls-25" d="M940.11,2029.93c22-20.4,37.19-18.25,43.28-16a3.27,3.27,0,0,1,1.76,4.58c-3,5.77-12.83,17.52-42.85,17.11A3.29,3.29,0,0,1,940.11,2029.93Z"/><path class="cls-25" d="M975.41,2045.31c20.36-22.07,35.65-21.11,41.91-19.33a3.28,3.28,0,0,1,2.11,4.43c-2.55,6-11.42,18.47-41.38,20.42A3.3,3.3,0,0,1,975.41,2045.31Z"/><path class="cls-25" d="M1018.55,2058.86c14.66-22.46,28.27-23.88,34-23.24a2.93,2.93,0,0,1,2.52,3.59c-1.36,5.65-7.32,18-33.42,24.12A2.94,2.94,0,0,1,1018.55,2058.86Z"/><path class="cls-25" d="M1057.06,2072.75c9.93-24.91,23-29,28.78-29.52a2.94,2.94,0,0,1,3.18,3c-.22,5.81-3.63,19.06-28,30.26A2.94,2.94,0,0,1,1057.06,2072.75Z"/><path class="cls-25" d="M1095,2094.83c1.93-26.75,13.14-34.59,18.5-36.83a2.92,2.92,0,0,1,3.94,1.91c1.55,5.6,2.31,19.26-17.53,37.31A2.94,2.94,0,0,1,1095,2094.83Z"/><path class="cls-25" d="M1132.34,2109.89c-.61-26.81,9.81-35.68,14.93-38.42a2.94,2.94,0,0,1,4.11,1.54c2.08,5.42,4.12,18.95-13.92,38.79A2.94,2.94,0,0,1,1132.34,2109.89Z"/><path class="cls-25" d="M1722.81,1746.6s-312.92,229.9-299.39,540.89C1423.42,2287.49,1413.87,2021.62,1722.81,1746.6Z"/><path class="cls-25" d="M1660.73,1720.85c11.45,33.78,1.76,49.19-3.65,54.7a3.9,3.9,0,0,1-5.83-.32c-4.79-6.06-12.77-22.41,2.23-54.77A3.91,3.91,0,0,1,1660.73,1720.85Z"/><path class="cls-25" d="M1626.94,1751.68c14.06,32.78,5.61,48.9.64,54.82a3.89,3.89,0,0,1-5.83.14c-5.25-5.66-14.49-21.35-2.07-54.78A3.91,3.91,0,0,1,1626.94,1751.68Z"/><path class="cls-25" d="M1591.33,1791.89c17.24,26.78,12.19,42.23,8.69,48.18a3.47,3.47,0,0,1-5.11,1c-5.47-4.21-15.93-16.65-10-47.94A3.5,3.5,0,0,1,1591.33,1791.89Z"/><path class="cls-25" d="M1557.59,1826.92c22.2,22.84,20.3,39,18.05,45.51a3.48,3.48,0,0,1-4.82,2c-6.19-3-18.91-13.17-19.23-45A3.49,3.49,0,0,1,1557.59,1826.92Z"/><path class="cls-25" d="M1527.07,1864.39c23.94,18,24.51,33.32,23.36,39.71a3.28,3.28,0,0,1-4.19,2.54c-6.2-1.94-19.48-9.52-24.39-39.08A3.29,3.29,0,0,1,1527.07,1864.39Z"/><path class="cls-25" d="M1485.28,1901.55c29.79,3.24,38.1,16.08,40.38,22.16a3.27,3.27,0,0,1-2.3,4.33c-6.31,1.5-21.6,1.79-40.95-21.1A3.29,3.29,0,0,1,1485.28,1901.55Z"/><path class="cls-25" d="M1747.71,1788.05c-34.57-9-49.24,1.86-54.34,7.67a3.89,3.89,0,0,0,.74,5.79c6.4,4.34,23.32,11.11,54.52-6.25A3.91,3.91,0,0,0,1747.71,1788.05Z"/><path class="cls-25" d="M1719.41,1824.06c-33.76-11.63-49.23-2-54.78,3.39a3.9,3.9,0,0,0,.29,5.83c6,4.83,22.38,12.9,54.85-2A3.92,3.92,0,0,0,1719.41,1824.06Z"/><path class="cls-25" d="M1681.89,1862.57c-28-15.24-43.07-9.06-48.75-5.13a3.47,3.47,0,0,0-.62,5.17c4.61,5.15,17.8,14.68,48.6,6.41A3.5,3.5,0,0,0,1681.89,1862.57Z"/><path class="cls-25" d="M1649.39,1898.83c-24.44-20.48-40.42-17.4-46.77-14.67a3.48,3.48,0,0,0-1.62,4.95c3.5,6,14.54,17.91,46.37,15.89A3.5,3.5,0,0,0,1649.39,1898.83Z"/><path class="cls-25" d="M1622.12,1943.36c-17.1-26.92-33.27-28.82-40.14-28.14a3.49,3.49,0,0,0-3,4.23c1.53,6.74,8.44,21.47,39.39,29.17A3.49,3.49,0,0,0,1622.12,1943.36Z"/><path class="cls-25" d="M1591.52,1980.18c-14.48-28.41-30.39-31.83-37.3-31.8a3.48,3.48,0,0,0-3.43,3.92c.89,6.85,6.38,22.17,36.46,32.77A3.5,3.5,0,0,0,1591.52,1980.18Z"/><path class="cls-22" d="M924.21,2434.54c54.88-60.52,239-240.62,428.61-167.67q10.62,4.05,21.25,9.22a22.89,22.89,0,0,0,7.94,2.31c4.2.35,9.65-.36,12.52-5.59a13.06,13.06,0,0,0-.79-13.24,411.94,411.94,0,0,0-52.46-64.23c-53.17-53.19-141.36-111.06-249.51-66.93C946.91,2187.51,916,2362.06,909.48,2428A8.49,8.49,0,0,0,924.21,2434.54Z"/><path class="cls-23" d="M987.14,2283.57c10.78-15,164.22-207.89,365.68-16.7q10.62,4.05,21.25,9.22a22.89,22.89,0,0,0,7.94,2.31c4.2.35,9.65-.36,12.52-5.59a13.06,13.06,0,0,0-.79-13.24S1176.74,2019.35,987.14,2283.57Z"/><path class="cls-26" d="M986.57,2284.37c.2-.28.36-.54.57-.8C986.84,2284,986.67,2284.23,986.57,2284.37Z"/><path class="cls-22" d="M2024.61,2232.88c-99.63-34.49-419.66-124.23-589.07,75.85q-9.49,11.16-18.33,23.6a29.45,29.45,0,0,1-7.56,7.54c-4.53,3-11.14,5.57-17.63,1.43-5.14-3.28-7.75-9.41-7.31-15.48a530.81,530.81,0,0,1,19.57-105.21c27.21-93.16,91.17-213.32,240.94-230.39,200.59-22.89,343.72,155.55,392,226.1C2043.15,2225,2034.61,2236.34,2024.61,2232.88Z"/><path class="cls-23" d="M1859.81,2101c-21.77-9.75-314.72-133.54-424.27,207.73q-9.49,11.16-18.33,23.6a29.45,29.45,0,0,1-7.56,7.54c-4.53,3-11.14,5.57-17.63,1.43-5.14-3.28-7.75-9.41-7.31-15.48a530.81,530.81,0,0,1,19.57-105.21C1461.14,2109.7,1590.25,1970.28,1859.81,2101Z"/><path class="cls-25" d="M1103.79,1470.61s416.7,501.05,268.86,1002.11C1372.65,2472.72,1495.75,2043.53,1103.79,1470.61Z"/><path class="cls-20" d="M1215.31,1453.78c-32.3,50.39-22.75,79.4-16.16,90.57a6.53,6.53,0,0,0,9.61,1.84c10.26-7.93,29.87-31.34,18.52-90.11A6.56,6.56,0,0,0,1215.31,1453.78Z"/><path class="cls-20" d="M1257.89,1517.67c-36.16,47.7-28.91,77.37-23.21,89a6.52,6.52,0,0,0,9.43,2.59c10.85-7.1,32.24-28.91,25.53-88.38A6.56,6.56,0,0,0,1257.89,1517.67Z"/><path class="cls-20" d="M1299.63,1597.56c-38.92,36.65-36.94,63.86-33.65,75a5.85,5.85,0,0,0,7.93,3.68c10.61-4.65,32.68-20.68,35.59-74.06A5.86,5.86,0,0,0,1299.63,1597.56Z"/><path class="cls-20" d="M1340.42,1668.26c-45.4,28.23-48.84,55.3-47.81,66.83a5.83,5.83,0,0,0,7,5.18c11.32-2.46,36.13-13.81,49.54-65.56A5.87,5.87,0,0,0,1340.42,1668.26Z"/><path class="cls-20" d="M1375,1741.65c-46.29,19.68-53.4,44.35-54.11,55.22a5.48,5.48,0,0,0,5.79,5.83c10.88-.65,35.59-7.61,55.54-53.79A5.51,5.51,0,0,0,1375,1741.65Z"/><path class="cls-20" d="M1428,1819.07c-49.84-6.77-68.57,10.79-74.75,19.77a5.49,5.49,0,0,0,2,8c9.68,5,34.47,11.67,75.24-17.8A5.52,5.52,0,0,0,1428,1819.07Z"/><path class="cls-20" d="M1046.47,1528c59.92-.58,79.45,23,85.41,34.49a6.54,6.54,0,0,1-3.55,9.13c-12.19,4.48-42.48,8.65-86.28-32.24A6.58,6.58,0,0,1,1046.47,1528Z"/><path class="cls-20" d="M1078,1598.15c59.69-5.28,81,16.65,87.84,27.68a6.54,6.54,0,0,1-2.82,9.38c-11.8,5.42-41.67,12-88.54-25.38A6.57,6.57,0,0,1,1078,1598.15Z"/><path class="cls-20" d="M1123.54,1676.06c51.79-13.5,73.81,2.65,81.48,11.35a5.84,5.84,0,0,1-1.1,8.68c-9.59,6.53-34.93,16.72-81.75-9.22A5.87,5.87,0,0,1,1123.54,1676.06Z"/><path class="cls-20" d="M1161.79,1748.27c48.1-23.48,72.88-12,82.12-5a5.83,5.83,0,0,1,.64,8.72c-8.11,8.29-30.93,23.29-82,7.13A5.87,5.87,0,0,1,1161.79,1748.27Z"/><path class="cls-20" d="M1188.21,1831.82c38.74-36.93,65.84-33.48,76.76-29.59a5.85,5.85,0,0,1,3.26,8.12c-5.22,10.36-22.44,31.56-76,31.59A5.87,5.87,0,0,1,1188.21,1831.82Z"/><path class="cls-20" d="M1223.15,1904.18c35.07-40.43,62.37-39.56,73.62-36.72a5.84,5.84,0,0,1,4,7.78c-4.21,10.8-19.35,33.53-72.63,38.62A5.86,5.86,0,0,1,1223.15,1904.18Z"/><path class="cls-27" d="M1533.57,2267.49v391.06a23.23,23.23,0,0,1-23.23,23.24H1259a23.23,23.23,0,0,1-23.24-23.24V2267.49a23.23,23.23,0,0,1,23.24-23.23h251.35A23.23,23.23,0,0,1,1533.57,2267.49Z"/><path class="cls-28" d="M1533.57,2267.49v391.06a23.23,23.23,0,0,1-23.23,23.24H1259a23.23,23.23,0,0,1-23.24-23.24v-14.36c218.51-61.1,244.94-310.57,247.3-399.93h27.29A23.23,23.23,0,0,1,1533.57,2267.49Z"/><path class="cls-8" d="M3530.31,2138.4s-120.91,336.41-183.38,447.68S3069.35,2657,3069.35,2657l69.71-274.5,104.68-181.73-40.06-114.4h0a255.71,255.71,0,0,1-42.27-10.05l-531.91-166.7,159.36-483.46,531.91,166.7A254.82,254.82,0,0,1,3495,1816.66h0Z"/><path class="cls-29" d="M2895.32,1732.81c-43.28,131.29-138.14,217.78-212,193.43l-1.88-.62c-26.43-8.71-53.92-16.87-81.59-24.5-.36.18-.27-.09-.27-.09-195.69-52.84-390.37,13.17-570.49,50.94,0,0-224.75-622,262.06-910,0,0,178.36,242.67,462.82,373.5,22.56,10.43,46.11,20.58,70.92,30.55,0,0,10.33,2.21,15.1,5C2915.79,1493,2938.6,1601.52,2895.32,1732.81Z"/><path class="cls-30" d="M2895.32,1732.81c-43.28,131.29-138.14,217.78-212,193.43,154.43-102.74,164-245.32,151.55-332.88A124.73,124.73,0,0,0,2755.2,1494c-418.17-156.76-464.06-452-464.06-452S2469.5,1284.6,2754,1415.43c22.56,10.43,46.11,20.58,70.92,30.55,0,0,10.33,2.21,15.1,5C2915.79,1493,2938.6,1601.52,2895.32,1732.81Z"/><ellipse class="cls-20" cx="1952.06" cy="1454.32" rx="601.6" ry="343.53" transform="matrix(0.31, -0.95, 0.95, 0.31, -40.26, 2852.98)"/><path class="cls-31" d="M1754,1918.08c44.26,14.61,97.15-8.83,150.07-60.15,24.34-23.58,48.7-53,72.13-87.33,48.64-70.79,93.7-162.42,127.87-266.2,35.49-107.61,53.8-211.6,55.8-299.41.9-37.36-1.15-71.73-6.13-102.25-.62-3.82-1.31-7.6-2-11.34-13-67.39-40.94-113.82-83.17-127.71-106.48-35.1-263.18,150.06-350,413.64-3.81,11.61-7.47,23.2-10.91,34.68,0,0,0,0,0,0l0,.29C1633.17,1662,1652.21,1884.53,1754,1918.08Z"/><path class="cls-28" d="M1707.56,1412s0,0,0,0l0,0c204.05-457.92,444.1-320.71,444.1-320.71-13-67.39-40.94-113.82-83.17-127.71-106.48-35.1-263.18,150.06-350,413.64C1714.66,1388.94,1711,1400.53,1707.56,1412Z"/><path class="cls-20" d="M2681.42,1925.62c-26.42-8.7-53.92-16.87-81.59-24.5,19.05,31.09,45.34,53.8,77.69,64.46,101.9,33.59,225.63-64.31,276.46-218.51,50.74-153.94,9.48-306.22-92.43-339.81-34.51-11.37-71.57-7.75-107.6,8.17,22.57,10.43,46.12,20.58,70.93,30.55,0,0,10.33,2.21,15.1,5,75.81,42,98.61,150.56,55.34,281.85s-138.14,217.79-212,193.44Z"/><path class="cls-8" d="M1897.36,1435.5c-35,107.79-32.55,205.19,5.5,217.55s97.26-65,132.27-172.81,32.54-205.19-5.51-217.54S1932.36,1327.71,1897.36,1435.5Z"/><path class="cls-29" d="M1902.88,1653.08l73.29,117.52c48.62-70.78,93.65-162.4,127.87-266.2,35.47-107.62,53.79-211.62,55.79-299.42l-130.2,57.73c38,12.34,40.5,109.75,5.48,217.58S1940.92,1665.42,1902.88,1653.08Z"/><path class="cls-5" d="M3014,1598.53c3.71,51.31,2.44,186.08-96.5,291.06a14.23,14.23,0,0,0,6.06,23.27L3204.29,2003a100.26,100.26,0,0,0,91.51-15.67c50.21-38.36,119.57-114.52,98.64-233.23a100.32,100.32,0,0,0-68.82-78.21l-293.16-92A14.22,14.22,0,0,0,3014,1598.53Z"/><path class="cls-21" d="M3042.91,1588.32s33.14,194.9-110.44,328.28l303,97.32a100.23,100.23,0,0,0,91.51-15.67c50.21-38.35,119.57-114.51,98.64-233.23a100.32,100.32,0,0,0-68.82-78.2Z"/><path class="cls-32" d="M3196.89,1668.44a12,12,0,0,0-15.62,12.36c3.13,43.41,2.06,157.43-81.65,246.24a12,12,0,0,0,5.13,19.69h0a14.3,14.3,0,0,0,14.45-3.49c96.54-95.74,91.45-224.77,87.78-261.16a16.61,16.61,0,0,0-10.09-13.64Z"/><path class="cls-32" d="M3288.71,1701.71a12,12,0,0,0-15.62,12.35c3.14,43.41,2.06,157.43-81.64,246.25a12,12,0,0,0,5.12,19.69h0a14.32,14.32,0,0,0,14.45-3.49c96.54-95.74,91.45-224.77,87.78-261.17a16.59,16.59,0,0,0-10.09-13.63Z"/><path class="cls-33" d="M3117.57,1667.86l.69-3-8.16-1.86c-11-2.47-23.35,10.88-27.6,29.8s1.23,36.27,12.22,38.73l7.52,1.69.59-2.54c8.41-3.49,16.27-14.61,19.49-29C3125.45,1687.84,3123.3,1674.78,3117.57,1667.86Z"/><ellipse class="cls-34" cx="3109.93" cy="1698.99" rx="35.12" ry="20.4" transform="translate(771.29 4361.51) rotate(-77.35)"/><path class="cls-31" d="M3088.2,1791l1.24-2.78-7.66-3.37c-10.33-4.51-25,6.25-32.75,24s-5.67,35.84,4.66,40.35l7.06,3.08,1.07-2.39c8.91-1.83,18.74-11.26,24.62-24.72C3092.15,1812.07,3092.52,1798.84,3088.2,1791Z"/><ellipse class="cls-20" cx="3074.79" cy="1820.08" rx="35.12" ry="20.4" transform="translate(176.92 3910.39) rotate(-66.43)"/><path class="cls-21" d="M3312.69,2212c-15.13,102.38-6.49,103.25-95.73,170.46S3205,2737.12,2985,2635.14c0,0-147.51-58.58-44.15-183.91,0,0,31.15-28,71.62-34.88a104.14,104.14,0,0,1,14.48-1.48c13.78-.43,26.06-15.91,38.75-37.61,22.5-38.48,46.27-96.51,81.88-124.82h0a83.46,83.46,0,0,1,17.31-10.78,63.45,63.45,0,0,0,22.77-17.43c37.64-45.26,16-137.89,16-137.89S3327.83,2109.63,3312.69,2212Z"/><path class="cls-35" d="M3181,2208.62l-12.9-4.81a21.19,21.19,0,0,1-12.88-26.14c7.87-25.24,14.49-73.07-22.33-123.21l43.06,22.79,50.73,44.58Z"/><path class="cls-36" d="M3175.92,2077.25s42.09,48.47,5,131.37l45,17.51a32.09,32.09,0,0,0,40.37-15.5c9.22-18.45,16.34-48.62,5.84-94.13l-40.49-62Z"/><path class="cls-8" d="M3143.32,2070.59s115.17,34.17,128.84,45.91l13.21-53.85-143.77-54.8-59.51,10.9Z"/><path class="cls-5" d="M3128.28,2484.44c-46.06-59-115.78-68.09-115.78-68.09a104.14,104.14,0,0,1,14.48-1.48c13.78-.43,26.06-15.91,38.75-37.61C3133.77,2417,3128.28,2484.44,3128.28,2484.44Z"/><path class="cls-5" d="M3243.05,2297.61c-52.27-60.57-94.34-45.58-95.42-45.18a83.46,83.46,0,0,1,17.31-10.78,63.45,63.45,0,0,0,22.77-17.43C3233.25,2252.84,3243.05,2297.61,3243.05,2297.61Z"/><path class="cls-21" d="M3530.31,2138.4s-120.91,336.41-183.38,447.68S3069.35,2657,3069.35,2657c107.87,9.06,198.43-78.36,267.52-183.91,98.8-150.93,147.22-329.33,140.33-509.6-3.81-99.78.87-161.11,8.7-198.61a254.1,254.1,0,0,1,9.14,51.82h0Z"/><polygon class="cls-20" points="3694.44 2462.35 3673.23 2577.08 3682.72 2653.68 3677.36 2669.13 3651.71 2742.94 3640.94 2773.95 3796.67 2775.56 3910.69 2566.77 3694.44 2462.35"/><path class="cls-37" d="M3796.67,2776.64H3582.44a107,107,0,0,1,94.92-106.43,109,109,0,0,1,12.19-.68,107,107,0,0,1,107.12,107.11Z"/><path class="cls-28" d="M3910.69,2566.77l-114,209.87H3582.44a107.12,107.12,0,0,1,5-32.61h167.73a33.65,33.65,0,0,0,29.27-17.05h0l93.23-176.13Z"/><path class="cls-38" d="M3406.9,1838.43,3559,2254.22l90.59,391.13s181.21,29.28,203.11-125.59l-135.2-281a216.36,216.36,0,0,1-16.41-47.79c-6.39-29.24-17.09-80.29-26.43-134.42-11.88-68.73-21.58-142.45-17.5-182.62l-180.13-76-4.49-1.9-32.32-13.65Z"/><path class="cls-39" d="M3406.91,1838.42,3559,2254.23l90.58,391.11s181.2,29.3,203.13-125.59c-140.85,108.77-238.45-71-249.46-187.67-8.18-86.59,44-214.4,71.38-275.52-11.87-68.76-21.57-142.47-17.48-182.63l-216.92-91.59Z"/><path class="cls-40" d="M3790.77,2568.64l9.52,20.4,4.13-1.91-9.52-20.44Zm-19-40.85,9.52,20.4,4.13-1.91-9.52-20.4Zm-19-40.81,9.52,20.4,4.13-1.9-9.53-20.4Zm-19-40.85,9.52,20.45,4.12-1.95-9.52-20.4Zm-19-40.8,9.52,20.4,4.08-1.9-9.52-20.4Zm-19-40.8,9.52,20.4,4.08-1.91-9.52-20.44Zm-19-40.85,9.52,20.4,4.08-1.9-9.52-20.41Zm-19-40.81,9.52,20.41,4.08-1.91-9.48-20.4Zm-19.05-40.8,9.52,20.4,4.13-1.95-9.57-20.4Zm-16.68-42.3a140.51,140.51,0,0,0,7.3,21.67l4.22-1.72a143.13,143.13,0,0,1-7.12-21Zm-12.42-42.66,8,21.08,4.21-1.59-8-21.08Zm-16-42.12,8,21.08,4.21-1.59-8-21.08Zm-16-42.12,8,21.08,4.22-1.58-8-21.09Zm-16-42.12,8,21.08,4.22-1.58-8-21.08Zm-16-42.12,8,21.09,4.22-1.59-8-21.08Zm-16-42.11,8,21.08,4.26-1.59-8-21.08Zm-16-42.12,8,21.08,4.26-1.59-8-21.08Zm-16-42.12,8,21.08,4.26-1.59-8-21.08Zm-16-42.07,8,21,4.26-1.58-8-21.09ZM3472.5,1796l1.18,3.12,3.31-1.22Z"/><path class="cls-20" d="M3616.07,2775.52h-373.8a.54.54,0,0,0,.41-.28,336.88,336.88,0,0,1,23.91-31.19c29.58-34.13,66-61,109.91-73.4l43.55-12.29L3596.8,2619l15.39,125.1Z"/><path class="cls-37" d="M3409,2776.64H3242.27a.54.54,0,0,0,.41-.28,336.88,336.88,0,0,1,23.91-31.19c29.58-34.13,66-61,109.91-73.39C3376.5,2671.78,3449.05,2696.86,3409,2776.64Z"/><path class="cls-28" d="M3616.07,2776.64h-373.8a.54.54,0,0,0,.41-.28,336.88,336.88,0,0,1,23.91-31.19h345.6Z"/><path class="cls-38" d="M3384.69,2639.14c39.94,26.74,77.84,36.4,110.89,37.08,1.54.05,3,.05,4.53.05,67.69-.18,114-37.13,114-37.13L3562.77,2225a70.45,70.45,0,0,1,8.34-42.93l73.77-132.43c19.45-34.91,41.3-68.42,66.87-99.11,65.83-79.07,29.65-142.9,29.65-142.9l-78,2.45-5.07.13-135.7,4.26-124.63,330Z"/><path class="cls-40" d="M3495.35,2666.34l.23,9.88c1.54.05,3,.05,4.53.05l-.22-10Zm-1-45.48.5,22.76,4.53-.13-.5-22.72Zm-1-45.42.5,22.71,4.53-.09-.5-22.71Zm-1-45.48.5,22.76,4.53-.13-.49-22.72Zm-1-45.43.5,22.72,4.54-.09-.5-22.72Zm-1-45.42.5,22.71,4.53-.09-.5-22.71Zm-1-45.48.5,22.72,4.54-.09-.5-22.72Zm-1-45.42.5,22.71,4.53-.09-.5-22.72Zm-1-45.48.5,22.76,4.53-.14-.5-22.71Zm-1-45.43.5,22.72,4.53-.09-.49-22.72Zm-1-45.42.5,22.71,4.54-.09-.5-22.76Zm1.27-23.08,4.49.68a114.41,114.41,0,0,1,5.49-21.58l-4.31-1.54A124.64,124.64,0,0,0,3486.69,2188.8Zm14.92-43.39,4.13,1.9,9.61-20.58-4.08-1.9Zm19.27-41.21,4.12,2,9.62-20.58-4.13-2Zm19.27-41.17,4.08,1.95,9.61-20.63-4.08-1.9Zm19.22-41.16,4.13,1.9,9.61-20.58-4.13-1.91Zm19.27-41.17,4.08,1.9,9.66-20.58-4.13-2Zm19.22-41.21,4.13,2,9.61-20.63-4.08-1.9Zm19.27-41.17,4.13,1.91,9.61-20.59-4.13-1.9Zm19.27-41.16,4.08,1.9,9.66-20.58-4.13-2Zm19.22-41.22,4.13,2,3.62-7.79-5.07.13Z"/><path class="cls-12" d="M3214,1160c-5.88-38.75-43.88-55-66.78-61.3a83.77,83.77,0,0,0-29-2.58c-19.38,1.56-36.83,1.11-46.8-8.52,0,0-5.1-3.58-8.64,2.28,0,0-18.74-17.38-21.47-22.08-.65-1.11-3.23-2.22-6.87-2.78h-.05c-11.77-1.87-34.6,2-40.11,30.92-7.22,37.84,80.68,103,126,114.42l95.38-36.57A80.78,80.78,0,0,0,3214,1160Z"/><path class="cls-13" d="M3120.32,1210.38l95.38-36.57A80.78,80.78,0,0,0,3214,1160s-56.3-8.74-85.8,22.83-188-94.42-93.84-117.81c-11.77-1.87-34.6,2-40.11,30.92C2987.06,1133.8,3075,1198.91,3120.32,1210.38Z"/><path class="cls-13" d="M3107.05,1105.07c-36.4-1.16-44.27-15.17-44.27-15.17,3.61,15.71,42.28,20.65,32.76,20.07s-45.89,17.61-46.18,25.11,52.24,37.52,63.49,18.76,42.72-18.47,49.07-26.26S3143.45,1106.22,3107.05,1105.07Z"/><path class="cls-4" d="M3251.07,1202.38,3230,1164.51s-68.28-5-122.91,54.63l24.83,37.24Z"/><path class="cls-34" d="M3118.3,1259.49C3138.41,1295,3217,1433.77,3252,1495.66A69.67,69.67,0,0,0,3354,1517.38a69.11,69.11,0,0,0,15.51-15.81c28-39.66,70.06-130.79,76.23-170.35V1195.53s-51.18,67.44-97,162.62a11.79,11.79,0,0,1-2.52,3.48h-.05a11.78,11.78,0,0,1-18.95-4.19l-63.45-155.6a12.19,12.19,0,0,0-8.79-7.47c-18-3.94-71.38-8.74-134.22,49.81A12.52,12.52,0,0,0,3118.3,1259.49Z"/><path class="cls-41" d="M3269.45,1516a69.64,69.64,0,0,0,84.52,1.42c-10.21-10.86-25.67-17.78-42.94-17.78C3294.51,1499.6,3279.66,1505.91,3269.45,1516Z"/><path class="cls-33" d="M3334.26,1416c-.15-.76-.25-1.52-.35-2.27-2.73-22.64,12.28-52.14,12.28-52.14h-.05a11.78,11.78,0,0,1-18.95-4.19C3318.3,1401.34,3338.41,1438.92,3334.26,1416Z"/><path class="cls-4" d="M3406.91,1734.35l149.53,29.3,10.76-209.14,2.17-41.93,8.24-159.89,36-196.11s-59.31,36-80-3.38l-71.18,148.27-42.08,327.86-4.6,36Z"/><path class="cls-42" d="M3406.91,1734.35l149.53,29.3,10.76-209.14s-61.48,93.41-146.85,74.82l-4.6,36Z"/><path class="cls-34" d="M3533.62,1153.2S3426.51,1405.84,3424.5,1846l-58.29-30.15s-12.06-72.61,28.14-300.61c22.8-129.31,27.82-212.76,27.89-260.78a81.5,81.5,0,0,1,49.5-74.92Z"/><path class="cls-41" d="M3521.32,1174c-11.93,13.66-25,26.83-36,41.21-6.75,8.79-.11,23.4,1.11,33.3,1.44,11.72-7.22,19.35-14.17,27.44l-23.13,26.94c-4.56,5.32-4.87,10.54-4.69,17.07l1.84,68.12,1.6,59.14c.13,4.87-7.45,4.87-7.58,0L3437,1323.39c-.2-7.32-1.11-14.7,3.07-21.24,5-7.91,12.5-14.83,18.58-21.92l12.34-14.37c2.25-2.62,5.14-5.3,6.73-8.41,3-5.84.32-13.44-.76-19.49-.87-4.84-2.42-10.16-2.24-15.12.41-11.4,12.64-21.43,19.61-29.41l21.67-24.81c3.22-3.68,8.56,1.7,5.36,5.36Z"/><path class="cls-34" d="M3506,1852.92c5.75,2,11.41,3.79,17,5.4,177.32,52.85,252-45.51,252-45.51-12.93-14.5-41.07-118.57-61.68-200.51-1.77-7.07-3.54-13.94-5.15-20.61-11.42-45.87-19.45-80.53-19.45-80.53l2.93-33,2.57-29.25L3714,1226l-100.43-69.46c-57.34,139.93-84.72,298.26-97.5,428.54-1.47,14.55-2.68,28.8-3.79,42.59-4.45,55.77-6.21,104.72-6.82,142.66C3504.66,1821.85,3506,1852.92,3506,1852.92Z"/><path class="cls-41" d="M3625.15,1176.68c2.83,20.61,5.83,41.21,8.48,61.84.81,6.31.06,12.33-4.05,17.47-3.83,4.77-10,7.87-15,11.2-5.93,3.92-8.86,9-7.5,16.29.92,4.9,2.16,9.76,3.24,14.62,2.57,11.62,5.35,23.21,7.72,34.87,1.7,8.39-.91,14.59-5.09,21.41l-37.32,60.87-33,53.83c-2.54,4.15-9.1.35-6.54-3.83l66.58-108.61c3.7-6,9.5-12.9,8.34-20.37-1.47-9.54-4.21-19-6.3-28.47l-4-18c-.88-4-2-8-1.65-12.14.69-7.78,5.51-12.91,11.68-17,5.79-3.83,14.21-7.61,15.61-15.12.78-4.17-.54-9-1.1-13.09l-2.95-21.55-4.42-32.19c-.65-4.77,6.65-6.84,7.31-2Z"/><path class="cls-33" d="M3512.29,1627.71l4.34,4.5,175-154.08,9.24-8.14-6.67-21.11-50-158.43s4.3,210.26-128.21,294.67C3514.61,1599.67,3513.4,1613.92,3512.29,1627.71Z"/><path class="cls-33" d="M3506,1852.92c5.75,2,11.41,3.79,17,5.4,133.27-29.09,190.35-246,190.35-246-1.77-7.07-3.54-13.94-5.15-20.61l-87.1,37.43-115.63,141.25C3504.66,1821.85,3506,1852.92,3506,1852.92Z"/><path class="cls-12" d="M3641.93,1077.93s0,0-.1,0c-1.87,1.26-3.74,2.47-5.56,3.48a92.61,92.61,0,0,1-13.89,6.52,6.29,6.29,0,0,0-4.09,5.15c-1.52,10.86-5.46,41.93-4.7,63.45-20.78,21.59-36.41,30.77-48,33.5-14.64,3.45-28.91-7.07-30.45-22l-3.15-30.66c-60.37,3.73-63.25-109.63-63.25-109.63l8.38-77.09,76.08-25,63.57,94.79s35.15-22.15,44.19,17.56C3665.22,1056.66,3653.91,1069.69,3641.93,1077.93Z"/><path class="cls-13" d="M3533.62,1153.2c47.09-14,44-45.57,44-45.57-16.06,26.47-38.79,29.45-45.56,29.81Z"/><path class="cls-13" d="M3626.42,1041c-2-5.15,3.8-10.1,8.6-7.35,4,2.28,7.36,7.32,4.41,18.41-5.75,21.54-17.55,12.29-16.76,5.75s6.71-9.42,3.83-16.6A1.8,1.8,0,0,0,3626.42,1041Z"/><path class="cls-43" d="M3531.89,1025.68a7,7,0,0,1,3-4.07,8.81,8.81,0,0,1,5.76-1.41c3.9.28,9.1,3.25,9.66,7.35.24,1.69,2.4,2.62,3.89,2.21,1.82-.5,2.44-2.19,2.2-3.89-.49-3.58-3.13-6.38-5.94-8.42a19,19,0,0,0-9.81-3.57c-6.54-.46-13.1,3.71-14.86,10.12-1.08,3.92,5,5.6,6.09,1.68Z"/><path class="cls-43" d="M3479.31,1023.8c.94-3.3,5.56-6,8.92-6.1,3.89-.07,7.14,3.66,8.88,7.24a3.18,3.18,0,0,0,4.32,1.13,3.22,3.22,0,0,0,1.13-4.32c-2.67-5.49-8.22-10.69-14.7-10.35-6.13.31-12.9,4.64-14.64,10.73a3.16,3.16,0,1,0,6.09,1.67Z"/><ellipse class="cls-43" cx="3488.03" cy="1043.13" rx="5.63" ry="8.97"/><ellipse class="cls-43" cx="3539.6" cy="1043.13" rx="5.93" ry="9.46"/><path class="cls-44" d="M3501.37,1087.1l36.92-4.83a3.53,3.53,0,0,1,4,3.84c-.82,8.31-4.42,25.57-20.07,26.57s-21.74-13.81-23.82-21.12A3.54,3.54,0,0,1,3501.37,1087.1Z"/><path class="cls-13" d="M3636.27,1081.46a92.61,92.61,0,0,1-13.89,6.52s-13.49,1.16-15.66-11.52C3607.63,1077.62,3617.43,1089.5,3636.27,1081.46Z"/><path class="cls-13" d="M3615.05,1023.63s-26.82,25.16-63.09-18.08c0,0-18.83-22.61-24.2-37.94-4.26-12.15-12.07,3.74-11.21,9.2,0,0-10.44-30.17-22.89-3.45,0,0-3.59,6-11.9,40.49l-7.45-64.63,36.21-31,69.83-3.88,31.33,26.59,30.75,40.52Z"/><path class="cls-45" d="M3659.19,914a1.34,1.34,0,0,1-2.21-1c.18-7.1,1.41-25,9.27-28.14C3675.73,881.07,3677.29,898,3659.19,914Z"/><path class="cls-45" d="M3663.19,919.08a1,1,0,0,1-.23-1.76c4.47-2.67,16.06-8.91,21.06-5.25C3690.05,916.48,3680.19,924,3663.19,919.08Z"/><path class="cls-45" d="M3660.78,1015.79c-1.77,2.93-3.74,6-5.86,9,0,0-11.62-21.47-38.35-2.17-25.1,18.09-76.18-26-82.49-60-1.11-6.12-7.78-10-13.14-6.77-2.47,1.46-4.8,4.29-6.31,9.24,0,0-6.92-20.51-21.32,0s-3.94,58.25-24.55,71.58c-16.42,10.66-24.15-3.68-25.61-25.3a143.41,143.41,0,0,1,.15-17.53c2.07-30.26-13.59-49,11.26-65.42,0,0,20.06-59.36,62-32.89,0,0,36.22-33.14,84.21-21.32s54.16,49,54.16,49S3704,945.12,3660.78,1015.79Z"/><path class="cls-46" d="M3660.78,1015.79c-1.77,2.93-3.74,6-5.86,9,0,0-11.62-21.47-38.35-2.17-25.1,18.09-76.18-26-82.49-60-1.11-6.12-7.78-10-13.14-6.77-2.47,1.46-4.8,4.29-6.31,9.24,0,0-6.92-20.51-21.32,0s-3.94,58.25-24.55,71.58c-16.42,10.66-24.15-3.68-25.61-25.3l0-.06s9.09,27.49,23.34,12.68,12.37-108.15,47-70.22c0,0,16.67-26,27.48,6.17s50.82,58.75,69,48.09,45.06-6.16,49.81,5.76A19.29,19.29,0,0,0,3660.78,1015.79Z"/><path class="cls-46" d="M3556.46,938.36s12.41,55.08,71.18,53.78C3627.64,992.14,3585.16,978.75,3556.46,938.36Z"/><path class="cls-46" d="M3656,935.81s23.57,15.63,2.79,59.34C3658.74,995.15,3668.17,961.51,3656,935.81Z"/><path class="cls-46" d="M3513.44,904.65s-32.64-21.67-50.74,26.4C3462.7,931.05,3476.35,900.49,3513.44,904.65Z"/><path class="cls-46" d="M3643.9,920.71s-31.82-53.19-104.3-23.12C3539.6,897.59,3604.13,882.22,3643.9,920.71Z"/><path class="cls-47" d="M3367.58,1613.6c-20.93,1.08-127.84,3.71-187-50a4.87,4.87,0,0,0-7.82,5.36l138.46,355.29a4.85,4.85,0,0,0,1.53,2.07c7.93,6.2,60.61,43.22,173.59,30.63a4.88,4.88,0,0,0,4.06-6.47l-118-333.67A4.86,4.86,0,0,0,3367.58,1613.6Z"/><path class="cls-12" d="M3529.29,1817.33c-10,25.61-66,56.59-66,56.59-23.31,10-43.32,9.56-60.12,2.69h0c-63.48-26-81-143.73-57-131.71,30.36,15.19,73.9,6.73,73.9,6.73l-15.14-42.8c15.67-13.28,35.27-13.55,35.27-13.55C3550,1717.82,3529.29,1817.33,3529.29,1817.33Z"/><path class="cls-13" d="M3433.37,1755.86c-6.8,23.42-83.1,13.21-83.1,13.21,1.88,70.43,52.09,106.92,52.93,107.53-63.48-26-81-143.73-57-131.71,30.36,15.19,73.9,6.73,73.9,6.73l-15.14-42.8S3440.18,1732.44,3433.37,1755.86Z"/><path class="cls-4" d="M3477.61,1661.72l-37.39,33.54s68.73,24.2,89.07,122.08l53.89-36.3S3524.72,1644.59,3477.61,1661.72Z"/><path class="cls-34" d="M3465.31,1662.77c72.24,40.77,89.36,117.55,93.1,143.17a5.91,5.91,0,0,0,8.89,4.19c86-51.18,141.35-199.75,171.56-284.42,4.35-12.27,8.19-23.23,11.52-32.33,7.22-19.75,8-48.14,5.2-79.11-6.82-76.08-35.06-167.67-40.61-185.2a5.65,5.65,0,0,0-4-3.89c-57.49-15.56-66,58-66.69,65.27a4.12,4.12,0,0,0,0,1.11c1.06,9.35,13.79,130.59-21.67,192.83-31.93,56.08-131.95,145.9-158.22,169A5.81,5.81,0,0,0,3465.31,1662.77Z"/><path class="cls-41" d="M3738.81,1525.71h.05c4.35-12.27,8.19-23.23,11.52-32.33,7.22-19.75,8-48.14,5.2-79.11l0,0S3703.15,1454.08,3738.81,1525.71Z"/><path class="cls-34" d="M1502.78,846.7c-26.13,11.11-58.39,32.31-80.24,72.5a50.68,50.68,0,0,0,14.28,64.64l287.34,215.48c15.3,11.48,35.27-6.46,25.49-22.9L1566,867.6A50.65,50.65,0,0,0,1502.78,846.7Z"/><path class="cls-34" d="M1277.52,1207.18c-16.33,23.22-32.54,58.26-29.86,103.93a50.65,50.65,0,0,0,46.25,47.35l357.79,31.31c19,1.67,26.54-24.1,9.56-32.9l-319-165.33A50.64,50.64,0,0,0,1277.52,1207.18Z"/><path class="cls-34" d="M1263.22,1698.94c3.46,28.18,14.93,65,47.54,97.13a50.66,50.66,0,0,0,66.06,4.12l286.42-216.7c15.26-11.54,3.53-35.68-15-30.82l-347.52,91.27A50.63,50.63,0,0,0,1263.22,1698.94Z"/></svg>